<svg xmlns="http://www.w3.org/2000/svg" width="34.912" height="32.598" viewBox="0 0 34.912 32.598">
  <g id="copon" transform="translate(0 -16.97)">
    <path id="Path_48" data-name="Path 48" d="M184.8,98.247a1.022,1.022,0,1,0,.706-1.178A1.022,1.022,0,0,0,184.8,98.247Z" transform="translate(-172.176 -74.596)" fill="#faa307"/>
    <path id="Path_49" data-name="Path 49" d="M34.656,37.937c-5.566-16.2-5.183-15.091-5.206-15.146a5.225,5.225,0,0,0-3.086-2.86c-.2-.068-11.4-2.689-11.724-2.8a3.443,3.443,0,0,0-3.341.74L1.7,26.7A5.28,5.28,0,0,0,0,30.581V46.224a3.338,3.338,0,0,0,3.325,3.343H23.864a3.338,3.338,0,0,0,3.325-3.343V44.712l5.725-2.45a3.323,3.323,0,0,0,1.741-4.325ZM23.864,47.522H3.325a1.29,1.29,0,0,1-1.28-1.3V30.581a3.229,3.229,0,0,1,1.038-2.372c8.225-7.568,3.141-2.848,9.633-8.835a1.3,1.3,0,0,1,1.27-.3c.414.124-.317-.472,10.121,9.132a3.229,3.229,0,0,1,1.038,2.372V46.224a1.29,1.29,0,0,1-1.28,1.3Zm8.242-7.139-4.916,2.1V30.581a5.28,5.28,0,0,0-1.7-3.877l-7.15-6.579,7.4,1.756a3.175,3.175,0,0,1,1.816,1.688c5.555,16.17,5.18,15.085,5.2,15.141a1.274,1.274,0,0,1-.655,1.674Z" transform="translate(0 0)" fill="#faa307"/>
    <path id="Path_50" data-name="Path 50" d="M154.515,201.2a1.023,1.023,0,0,0-1.339.547L148.2,213.62a1.023,1.023,0,1,0,1.886.792l4.979-11.868A1.023,1.023,0,0,0,154.515,201.2Z" transform="translate(-138.016 -171.597)" fill="#faa307"/>
    <path id="Path_51" data-name="Path 51" d="M83.574,196.6a3.241,3.241,0,1,0-3.223,3.58A3.42,3.42,0,0,0,83.574,196.6Zm-3.223,1.534a1.589,1.589,0,1,1,1.177-1.534A1.411,1.411,0,0,1,80.351,198.132Z" transform="translate(-71.869 -164.042)" fill="#faa307"/>
    <path id="Path_52" data-name="Path 52" d="M231.708,312.011a3.6,3.6,0,1,0,3.223,3.58A3.42,3.42,0,0,0,231.708,312.011Zm0,5.115a1.589,1.589,0,1,1,1.177-1.534A1.411,1.411,0,0,1,231.708,317.126Z" transform="translate(-212.905 -274.922)" fill="#faa307"/>
  </g>
</svg>
