<svg xmlns="http://www.w3.org/2000/svg" width="34.224" height="32.754" viewBox="0 0 34.224 32.754">
  <g id="gift" transform="translate(-5.013 -15.79)">
    <path id="Path_27" data-name="Path 27" d="M28.72,73.528h-18l15.584-9.909a.409.409,0,0,0,.126-.565l-1.544-2.428a2.474,2.474,0,0,0-3.411-.759l-2.193,1.394.174-.831a2.339,2.339,0,1,0-4.567-1.017L13.753,64.53l-3.815-.849a2.34,2.34,0,0,0-1.432,4.433L6.157,69.608A2.474,2.474,0,0,0,5.4,73.019l1.544,2.428a.409.409,0,0,0,.565.126l1.437-.914V85.015a2.474,2.474,0,0,0,2.471,2.471H26.658a2.474,2.474,0,0,0,2.471-2.471V73.937a.409.409,0,0,0-.409-.409Zm-6.8-12.971A1.642,1.642,0,0,1,22.8,60.3a1.669,1.669,0,0,1,.362.04,1.642,1.642,0,0,1,1.036.727l1.325,2.083-6.443,4.1-2.211-3.478Zm-6.227-.966a1.521,1.521,0,1,1,2.969.666l-.336,1.607L14.665,64.2Zm.488,4.615,2.211,3.478-3.733,2.374L12.445,66.58ZM8.146,66.781a1.521,1.521,0,0,1,1.614-2.3l3.306.736L9.4,67.516l-.3-.066A1.511,1.511,0,0,1,8.146,66.781Zm-.733,7.883L6.088,72.58A1.655,1.655,0,0,1,6.6,70.3l5.159-3.28L13.966,70.5Zm7.933,12H11.415a1.655,1.655,0,0,1-1.653-1.653V74.346h5.584Zm5.2,0H16.163V74.346h4.381Zm7.766-1.653a1.655,1.655,0,0,1-1.653,1.653h-5.3V74.346h6.948Z" transform="translate(0 -38.942)" fill="#faa307"/>
    <path id="Path_28" data-name="Path 28" d="M367.933,214.841l.2-1.141a.409.409,0,0,0-.593-.431l-1.025.539-1.025-.539a.409.409,0,0,0-.594.431l.2,1.141-.829.808a.409.409,0,0,0,.227.7l1.145.167.512,1.038a.409.409,0,0,0,.734,0l.512-1.038,1.145-.167a.409.409,0,0,0,.227-.7Zm-.874.893a.409.409,0,0,0-.308.224l-.241.488-.241-.488a.409.409,0,0,0-.308-.224l-.538-.078.389-.38a.409.409,0,0,0,.118-.362l-.092-.536.481.253a.409.409,0,0,0,.381,0l.481-.253-.092.536a.409.409,0,0,0,.118.362l.389.38Z" transform="translate(-334.639 -183.971)" fill="#faa307"/>
    <path id="Path_29" data-name="Path 29" d="M428.43,132.182l-1.125-.273-.413-1.082a.409.409,0,0,0-.73-.069l-.608.985-1.156.058a.409.409,0,0,0-.291.673l.749.882-.3,1.117a.409.409,0,0,0,.55.485l1.07-.44.97.632a.409.409,0,0,0,.631-.374l-.088-1.154.9-.727a.409.409,0,0,0-.16-.716Zm-1.422.941a.409.409,0,0,0-.151.349l.041.542-.456-.3a.409.409,0,0,0-.379-.036l-.5.207.142-.525a.409.409,0,0,0-.083-.372l-.352-.414.543-.027a.409.409,0,0,0,.328-.194l.285-.463.194.508a.409.409,0,0,0,.286.252l.528.128Z" transform="translate(-390.431 -106.949)" fill="#faa307"/>
    <path id="Path_30" data-name="Path 30" d="M389.025,18.583l-.3,1.117a.409.409,0,0,0,.55.485l1.07-.44.97.633a.409.409,0,0,0,.631-.374l-.088-1.154.9-.727a.409.409,0,0,0-.16-.716l-1.125-.273-.412-1.082a.409.409,0,0,0-.73-.069l-.607.985-1.156.058a.409.409,0,0,0-.291.673Zm.954-.807a.409.409,0,0,0,.328-.194l.285-.463.194.508a.409.409,0,0,0,.286.252l.528.128-.423.341a.409.409,0,0,0-.151.349l.041.542-.456-.3a.409.409,0,0,0-.379-.036l-.5.207.142-.525a.409.409,0,0,0-.083-.372l-.352-.415Z" transform="translate(-357.042 0)" fill="#faa307"/>
    <path id="Path_31" data-name="Path 31" d="M271.83,227.308a4.705,4.705,0,0,0-1.393,1.315.409.409,0,0,0,.691.438,4.284,4.284,0,0,1,4.763-1.536.409.409,0,1,0,.2-.794A5.346,5.346,0,0,0,271.83,227.308Z" transform="translate(-247.269 -196.379)" fill="#faa307"/>
    <path id="Path_32" data-name="Path 32" d="M295.482,156.035a.409.409,0,1,0,.314-.756,6,6,0,0,0-6.291.669,7.669,7.669,0,0,0-2.036,2.4.409.409,0,1,0,.733.364A6.9,6.9,0,0,1,290,156.6,5.187,5.187,0,0,1,295.482,156.035Z" transform="translate(-263.158 -129.438)" fill="#faa307"/>
    <path id="Path_33" data-name="Path 33" d="M337.905,88.228a.409.409,0,0,0,.263.515,6.147,6.147,0,0,0,1.734.251,4.267,4.267,0,0,0,2.183-.543,3.884,3.884,0,0,0,1.768-2.782.409.409,0,1,0-.8-.153,3.109,3.109,0,0,1-1.378,2.229,4.552,4.552,0,0,1-3.252.22A.409.409,0,0,0,337.905,88.228Z" transform="translate(-310.178 -64.662)" fill="#faa307"/>
    <path id="Path_34" data-name="Path 34" d="M248.8,264.734a.737.737,0,1,0-.737-.737A.737.737,0,0,0,248.8,264.734Zm0-.818a.081.081,0,1,1-.081.081A.082.082,0,0,1,248.8,263.916Z" transform="translate(-226.479 -230.599)" fill="#faa307"/>
    <path id="Path_35" data-name="Path 35" d="M333.818,68.734a.737.737,0,1,0-.737-.737A.737.737,0,0,0,333.818,68.734Zm0-.818a.081.081,0,1,1-.081.081A.081.081,0,0,1,333.818,67.916Z" transform="translate(-305.701 -47.962)" fill="#faa307"/>
    <path id="Path_36" data-name="Path 36" d="M486.125,80.633a.737.737,0,1,0,.737.737A.737.737,0,0,0,486.125,80.633Zm0,.818a.081.081,0,1,1,.081-.081A.081.081,0,0,1,486.125,81.451Z" transform="translate(-447.625 -60.422)" fill="#faa307"/>
    <path id="Path_37" data-name="Path 37" d="M234.305,213.958a.737.737,0,1,0-.736.737.737.737,0,0,0,.736-.737Zm-.736.082a.081.081,0,1,1,.081-.082.081.081,0,0,1-.081.082Z" transform="translate(-212.287 -183.971)" fill="#faa307"/>
    <path id="Path_38" data-name="Path 38" d="M468.331,230.812a.737.737,0,1,0,.737.737A.737.737,0,0,0,468.331,230.812Zm0,.818a.081.081,0,1,1,.081-.081A.081.081,0,0,1,468.331,231.63Z" transform="translate(-431.044 -200.362)" fill="#faa307"/>
  </g>
</svg>
