<svg id="headphones" xmlns="http://www.w3.org/2000/svg" width="28.761" height="32.724" viewBox="0 0 28.761 32.724">
  <g id="Group_40" data-name="Group 40" transform="translate(3.835 13.422)">
    <g id="Group_39" data-name="Group 39">
      <path id="Path_59" data-name="Path 59" d="M93.876,210A2.879,2.879,0,0,0,91,212.876v7.8a2.876,2.876,0,0,0,5.752,0v-7.8A2.879,2.879,0,0,0,93.876,210Z" transform="translate(-91 -210)" fill="#faa307"/>
    </g>
  </g>
  <g id="Group_42" data-name="Group 42" transform="translate(0 15.49)">
    <g id="Group_41" data-name="Group 41">
      <path id="Path_60" data-name="Path 60" d="M32.917,243.173a4.757,4.757,0,0,1,.082-.807,2.87,2.87,0,0,0-2,2.725v3.963a2.87,2.87,0,0,0,2,2.725,4.757,4.757,0,0,1-.082-.807Z" transform="translate(-31 -242.366)" fill="#faa307"/>
    </g>
  </g>
  <g id="Group_44" data-name="Group 44" transform="translate(11.504 13.422)">
    <g id="Group_43" data-name="Group 43">
      <path id="Path_61" data-name="Path 61" d="M221.546,210a2.879,2.879,0,0,0-2.876,2.876v7.8a2.879,2.879,0,0,0,2.876,2.876,2.837,2.837,0,0,0,.824-.135,2.87,2.87,0,0,1-2.741,2.052h-3.053a2.876,2.876,0,1,0,0,1.917h3.053a4.8,4.8,0,0,0,4.794-4.794v-9.715A2.879,2.879,0,0,0,221.546,210Z" transform="translate(-211 -210)" fill="#faa307"/>
    </g>
  </g>
  <g id="Group_46" data-name="Group 46" transform="translate(26.762 15.49)">
    <g id="Group_45" data-name="Group 45">
      <path id="Path_62" data-name="Path 62" d="M449.722,242.366a4.756,4.756,0,0,1,.082.807v7.8a4.756,4.756,0,0,1-.082.807,2.87,2.87,0,0,0,2-2.725v-3.963A2.87,2.87,0,0,0,449.722,242.366Z" transform="translate(-449.722 -242.366)" fill="#faa307"/>
    </g>
  </g>
  <g id="Group_48" data-name="Group 48">
    <g id="Group_47" data-name="Group 47">
      <path id="Path_63" data-name="Path 63" d="M45.381,0A14.4,14.4,0,0,0,31,14.381V14.4a4.747,4.747,0,0,1,1.961-.891,12.448,12.448,0,0,1,24.838,0,4.749,4.749,0,0,1,1.961.891v-.024A14.4,14.4,0,0,0,45.381,0Z" transform="translate(-31)" fill="#faa307"/>
    </g>
  </g>
</svg>
