<svg xmlns="http://www.w3.org/2000/svg" width="106.271" height="31.539" viewBox="0 0 106.271 31.539">
  <g id="huawei" transform="translate(0 0)">
    <path id="Path_8749" data-name="Path 8749" d="M450.991,103.23H358.866c-.242,0-.476.007-.725.007a9.963,9.963,0,0,0-1.577.141,5.3,5.3,0,0,0-1.492.485,4.969,4.969,0,0,0-1.272.921,4.732,4.732,0,0,0-.924,1.258,5.2,5.2,0,0,0-.49,1.483,10.448,10.448,0,0,0-.142,1.56c-.007.239-.007.478-.014.717V128.2c.007.239.007.478.014.717a9.653,9.653,0,0,0,.142,1.56,5.2,5.2,0,0,0,.49,1.483,4.893,4.893,0,0,0,.924,1.258,4.781,4.781,0,0,0,1.272.914,5.308,5.308,0,0,0,1.492.492,10.864,10.864,0,0,0,1.577.141c.242.007.483.007.725.007h92.984c.242,0,.483,0,.725-.007a9.887,9.887,0,0,0,1.577-.141,5.21,5.21,0,0,0,1.5-.492,5.114,5.114,0,0,0,1.272-.914,4.92,4.92,0,0,0,.931-1.258,5.205,5.205,0,0,0,.49-1.483,10.464,10.464,0,0,0,.149-1.56V128.2c.007-.281.007-.562.007-.85V110.653c0-.281,0-.569-.007-.85v-.717a10.554,10.554,0,0,0-.149-1.56,5.279,5.279,0,0,0-.49-1.483,4.92,4.92,0,0,0-.931-1.258,5.14,5.14,0,0,0-1.272-.921,5.193,5.193,0,0,0-1.5-.485,10.692,10.692,0,0,0-1.577-.141c-.242-.007-.483-.007-.725-.007h-.86" transform="translate(-352.23 -103.23)" fill="#fff"/>
    <path id="Path_8750" data-name="Path 8750" d="M359.143,134.383c-.242,0-.476,0-.711-.007a10.23,10.23,0,0,1-1.47-.127,4.409,4.409,0,0,1-1.3-.429,4.378,4.378,0,0,1-1.9-1.884,4.4,4.4,0,0,1-.426-1.293,8.685,8.685,0,0,1-.128-1.462c-.007-.162-.014-.71-.014-.71V110.083s.007-.534.014-.7a9.427,9.427,0,0,1,.128-1.455,4.62,4.62,0,0,1,.426-1.293,4.191,4.191,0,0,1,.8-1.089,4.333,4.333,0,0,1,1.1-.794,4.471,4.471,0,0,1,1.3-.422,9.852,9.852,0,0,1,1.478-.127l.711-.007H452.1l.717.007a9.75,9.75,0,0,1,1.463.127,4.8,4.8,0,0,1,1.314.429,4.175,4.175,0,0,1,1.094.794,4.386,4.386,0,0,1,.8,1.089,4.555,4.555,0,0,1,.419,1.286,9.551,9.551,0,0,1,.135,1.469v.7c.007.3.007.569.007.851v16.694c0,.281,0,.562-.007.836v.724a9.2,9.2,0,0,1-.135,1.441,4.307,4.307,0,0,1-.426,1.3,4.07,4.07,0,0,1-.8,1.075,4.337,4.337,0,0,1-1.1.794,4.575,4.575,0,0,1-1.314.429,10.063,10.063,0,0,1-1.471.127c-.227.007-.469.007-.7.007h-.852Z" transform="translate(-352.515 -103.518)" fill="#0277bd"/>
    <g id="Group_17865" data-name="Group 17865" transform="translate(32.832 5.708)">
      <path id="Path_8751" data-name="Path 8751" d="M405.093,130.738h-3.648l-.893,2.439h-1.6l3.571-9.117h1.518l3.655,9.117h-1.687ZM401.9,129.5h2.727l-.977-2.608c-.134-.359-.267-.759-.394-1.195-.119.387-.246.78-.386,1.181Z" transform="translate(-398.943 -115.126)" fill="#fff"/>
      <path id="Path_8752" data-name="Path 8752" d="M412.4,128.988c0-.506-.021-1.054-.049-1.659h1.462a6.925,6.925,0,0,1,.113.865A2.734,2.734,0,0,1,416,127.21a2.4,2.4,0,0,1,1.258.344,2.468,2.468,0,0,1,.935,1.082,4.3,4.3,0,0,1,.359,1.877,4.594,4.594,0,0,1-.408,2.031A2.893,2.893,0,0,1,417,133.824a3.24,3.24,0,0,1-1.687.436,4.15,4.15,0,0,1-1.364-.232v2.8l-1.553.134Zm4.084,3.465a3.084,3.084,0,0,0,.478-1.863,2.758,2.758,0,0,0-.394-1.652,1.245,1.245,0,0,0-1.047-.513,1.7,1.7,0,0,0-.836.211,3.21,3.21,0,0,0-.731.576v3.634a2.223,2.223,0,0,0,.541.176,3.022,3.022,0,0,0,.612.07,1.609,1.609,0,0,0,1.378-.64" transform="translate(-402.924 -116.062)" fill="#fff"/>
      <path id="Path_8753" data-name="Path 8753" d="M422.559,128.988c0-.506-.021-1.054-.049-1.659h1.462a6.914,6.914,0,0,1,.113.865,2.734,2.734,0,0,1,2.074-.984,2.4,2.4,0,0,1,1.258.344,2.467,2.467,0,0,1,.935,1.082,4.293,4.293,0,0,1,.359,1.877,4.593,4.593,0,0,1-.408,2.031,2.891,2.891,0,0,1-1.139,1.279,3.241,3.241,0,0,1-1.687.436,4.149,4.149,0,0,1-1.364-.232v2.8l-1.554.134Zm4.084,3.465a3.086,3.086,0,0,0,.478-1.863,2.759,2.759,0,0,0-.393-1.652,1.245,1.245,0,0,0-1.047-.513,1.7,1.7,0,0,0-.837.211,3.211,3.211,0,0,0-.731.576v3.634a2.22,2.22,0,0,0,.541.176,3.023,3.023,0,0,0,.612.07,1.61,1.61,0,0,0,1.378-.64" transform="translate(-405.943 -116.062)" fill="#fff"/>
      <path id="Path_8754" data-name="Path 8754" d="M434.608,132.7a3.723,3.723,0,0,1-1.546-1.6,5.26,5.26,0,0,1-.541-2.453,5.114,5.114,0,0,1,.626-2.608,4.015,4.015,0,0,1,1.694-1.61,5.3,5.3,0,0,1,2.4-.541,6.171,6.171,0,0,1,1.5.176,6.45,6.45,0,0,1,1.328.471l-.394,1.195a5.517,5.517,0,0,0-2.362-.59,3.288,3.288,0,0,0-1.666.408,2.777,2.777,0,0,0-1.111,1.195,4.138,4.138,0,0,0-.393,1.9,4.715,4.715,0,0,0,.3,1.729,2.568,2.568,0,0,0,.963,1.195,2.9,2.9,0,0,0,1.659.443,5.633,5.633,0,0,0,.907-.077,5.187,5.187,0,0,0,.85-.218v-1.842h-2.109v-1.209h3.62V132.5a8.192,8.192,0,0,1-1.638.562,7.865,7.865,0,0,1-1.708.2,4.9,4.9,0,0,1-2.39-.562" transform="translate(-408.917 -115.076)" fill="#fff"/>
      <path id="Path_8755" data-name="Path 8755" d="M449.716,134.112a5.45,5.45,0,0,1-.105-.9,2.893,2.893,0,0,1-.935.724,2.816,2.816,0,0,1-1.3.3,2.45,2.45,0,0,1-1.068-.232,1.814,1.814,0,0,1-.766-.689,2.112,2.112,0,0,1-.281-1.132,1.945,1.945,0,0,1,.71-1.574,3.725,3.725,0,0,1,2.369-.59,7.923,7.923,0,0,1,1.23.091v-.134a1.693,1.693,0,0,0-.387-1.265,1.527,1.527,0,0,0-1.1-.366,4.192,4.192,0,0,0-1.061.148,5.605,5.605,0,0,0-.991.344l-.246-1.132a5.83,5.83,0,0,1,1.1-.344,6.272,6.272,0,0,1,1.434-.155,3.826,3.826,0,0,1,1.5.267,1.939,1.939,0,0,1,.963.921,3.741,3.741,0,0,1,.344,1.75v2.7c0,.281.014.71.049,1.279h-1.448Zm-.935-1.258a2.437,2.437,0,0,0,.794-.576V131.02a9.249,9.249,0,0,0-1.04-.07,2.139,2.139,0,0,0-1.329.309,1.043,1.043,0,0,0-.365.843.963.963,0,0,0,.267.745,1.035,1.035,0,0,0,.724.239,2.189,2.189,0,0,0,.949-.232" transform="translate(-412.702 -116.062)" fill="#fff"/>
      <path id="Path_8756" data-name="Path 8756" d="M455.54,131.267v-8.02l1.546-.127v7.872a.975.975,0,0,0,.148.612.574.574,0,0,0,.471.183,1.582,1.582,0,0,0,.408-.07l.183,1.111a2.851,2.851,0,0,1-.541.141,3.7,3.7,0,0,1-.6.056c-1.083,0-1.617-.583-1.617-1.757" transform="translate(-415.756 -114.847)" fill="#fff"/>
      <path id="Path_8757" data-name="Path 8757" d="M461.04,131.267v-8.02l1.546-.127v7.872a.976.976,0,0,0,.147.612.575.575,0,0,0,.471.183,1.581,1.581,0,0,0,.408-.07l.183,1.111a2.852,2.852,0,0,1-.541.141,3.7,3.7,0,0,1-.6.056c-1.075,0-1.617-.583-1.617-1.757" transform="translate(-417.39 -114.847)" fill="#fff"/>
      <path id="Path_8758" data-name="Path 8758" d="M471.577,130.918h-4.442c.07,1.42.752,2.13,2.031,2.13a3.953,3.953,0,0,0,.977-.119,6.068,6.068,0,0,0,.956-.309l.337,1.061a5.818,5.818,0,0,1-2.559.555,3.737,3.737,0,0,1-1.827-.408,2.655,2.655,0,0,1-1.118-1.174,4.229,4.229,0,0,1-.373-1.849,4.343,4.343,0,0,1,.4-1.94,2.876,2.876,0,0,1,1.1-1.237,3.053,3.053,0,0,1,1.631-.429,2.75,2.75,0,0,1,1.61.45,2.7,2.7,0,0,1,.956,1.2,4.322,4.322,0,0,1,.309,1.652v.415Zm-1.511-.991a1.939,1.939,0,0,0-.408-1.216,1.267,1.267,0,0,0-.977-.408,1.3,1.3,0,0,0-.984.408,2.165,2.165,0,0,0-.513,1.216Z" transform="translate(-418.733 -116.059)" fill="#fff"/>
      <path id="Path_8759" data-name="Path 8759" d="M475.879,129.028c0-.373-.014-.942-.049-1.7h1.455c.028.19.049.415.07.675s.035.471.049.64a6.011,6.011,0,0,1,.534-.752,2.324,2.324,0,0,1,.612-.5,1.637,1.637,0,0,1,.794-.19,2.284,2.284,0,0,1,.618.077l-.2,1.35a1.6,1.6,0,0,0-.506-.07,1.629,1.629,0,0,0-.956.281,3.7,3.7,0,0,0-.872.921v4.358h-1.546v-5.089Z" transform="translate(-421.784 -116.059)" fill="#fff"/>
      <path id="Path_8760" data-name="Path 8760" d="M482.792,136.936a4.457,4.457,0,0,1-.562-.134l.281-1.132q.158.042.4.084a2.617,2.617,0,0,0,.45.042c.689,0,1.2-.443,1.546-1.328l.1-.253-2.5-6.846h1.673l1.258,3.824a11.886,11.886,0,0,1,.394,1.5c.12-.492.253-.984.415-1.469l1.279-3.859h1.567l-2.5,6.874a6.844,6.844,0,0,1-.759,1.574,2.662,2.662,0,0,1-.963.886,2.827,2.827,0,0,1-1.342.288,3.5,3.5,0,0,1-.738-.056" transform="translate(-423.686 -116.11)" fill="#fff"/>
      <path id="Path_8761" data-name="Path 8761" d="M398.94,111.45h2.8l-.077.675h-1.9v1.314h1.8v.633h-1.8v1.455h2.01l-.07.682H398.94Z" transform="translate(-398.94 -111.38)" fill="#fff"/>
      <path id="Path_8762" data-name="Path 8762" d="M405,113.784l-1.476-2.334h.935l1,1.715,1.054-1.715h.907l-1.462,2.3,1.582,2.46h-.942l-1.132-1.87-1.16,1.87h-.9Z" transform="translate(-400.265 -111.38)" fill="#fff"/>
      <path id="Path_8763" data-name="Path 8763" d="M410.137,111.45h1.279a2.241,2.241,0,0,1,1.385.366,1.269,1.269,0,0,1,.478,1.068,1.459,1.459,0,0,1-.815,1.364,1.957,1.957,0,0,1-.886.19,3.619,3.619,0,0,1-.625-.063v1.835h-.823V111.45Zm2.059,2.123a.859.859,0,0,0,.26-.675.728.728,0,0,0-.267-.633,1.352,1.352,0,0,0-.787-.2h-.45v1.687a2.949,2.949,0,0,0,.471.049,1.063,1.063,0,0,0,.773-.232" transform="translate(-402.264 -111.38)" fill="#fff"/>
      <path id="Path_8764" data-name="Path 8764" d="M415.77,111.45h.822v4.056h1.968l-.07.7h-2.72Z" transform="translate(-403.94 -111.38)" fill="#fff"/>
      <path id="Path_8765" data-name="Path 8765" d="M421.056,115.947a2.019,2.019,0,0,1-.8-.843,2.745,2.745,0,0,1-.274-1.258,2.788,2.788,0,0,1,.3-1.314,2.036,2.036,0,0,1,.85-.872,2.663,2.663,0,0,1,1.307-.309,2.461,2.461,0,0,1,1.237.3,1.985,1.985,0,0,1,.794.836,2.712,2.712,0,0,1,.274,1.251,2.807,2.807,0,0,1-.3,1.328,2.036,2.036,0,0,1-.85.872,2.626,2.626,0,0,1-1.293.3,2.431,2.431,0,0,1-1.244-.288m2.13-.583a1.365,1.365,0,0,0,.513-.64,2.4,2.4,0,0,0,.169-.928,2.465,2.465,0,0,0-.155-.914,1.336,1.336,0,0,0-.485-.64,1.4,1.4,0,0,0-.851-.239,1.406,1.406,0,0,0-1.371.886,2.178,2.178,0,0,0-.176.893,2.5,2.5,0,0,0,.162.921,1.536,1.536,0,0,0,2.193.661" transform="translate(-405.191 -111.35)" fill="#fff"/>
      <path id="Path_8766" data-name="Path 8766" d="M428.05,111.45h1.49a2,2,0,0,1,1.237.323,1.105,1.105,0,0,1,.422.928,1.458,1.458,0,0,1-.148.668,1.506,1.506,0,0,1-.836.738l1.462,2.095h-.956l-1.237-1.884h-.6V116.2h-.823V111.45Zm1.286,2.249a1.081,1.081,0,0,0,.527-.119.859.859,0,0,0,.358-.33.931.931,0,0,0,.127-.492.622.622,0,0,0-.225-.527,1.09,1.09,0,0,0-.661-.169h-.6v1.624h.471Z" transform="translate(-407.589 -111.38)" fill="#fff"/>
      <path id="Path_8767" data-name="Path 8767" d="M434.12,111.45h2.8l-.077.675h-1.9v1.314h1.792v.633h-1.792v1.455h2l-.07.682H434.12Z" transform="translate(-409.392 -111.38)" fill="#fff"/>
      <rect id="Rectangle_6261" data-name="Rectangle 6261" width="0.822" height="4.759" transform="translate(30.576 0.07)" fill="#fff"/>
      <path id="Path_8768" data-name="Path 8768" d="M446.076,112.139H444.6l.07-.689h3.7l-.077.689h-1.4v4.07h-.822Z" transform="translate(-412.506 -111.38)" fill="#fff"/>
      <path id="Path_8769" data-name="Path 8769" d="M454.586,115.947a2.018,2.018,0,0,1-.8-.843,2.741,2.741,0,0,1-.274-1.258,2.79,2.79,0,0,1,.3-1.314,2.037,2.037,0,0,1,.851-.872,2.664,2.664,0,0,1,1.307-.309,2.459,2.459,0,0,1,1.237.3,1.983,1.983,0,0,1,.794.836,2.712,2.712,0,0,1,.274,1.251,2.808,2.808,0,0,1-.3,1.328,2.036,2.036,0,0,1-.851.872,2.625,2.625,0,0,1-1.293.3,2.4,2.4,0,0,1-1.244-.288m2.13-.583a1.366,1.366,0,0,0,.513-.64,2.4,2.4,0,0,0,.169-.928,2.467,2.467,0,0,0-.155-.914,1.337,1.337,0,0,0-.485-.64,1.4,1.4,0,0,0-.85-.239,1.4,1.4,0,0,0-1.371.886,2.176,2.176,0,0,0-.176.893,2.5,2.5,0,0,0,.162.921,1.368,1.368,0,0,0,1.343.886,1.439,1.439,0,0,0,.851-.225" transform="translate(-415.153 -111.35)" fill="#fff"/>
      <path id="Path_8770" data-name="Path 8770" d="M461.57,111.447h.942l2.355,3.683c-.021-.351-.028-.675-.028-.97v-2.72h.759V116.2h-.914l-2.39-3.746c.021.422.035.8.035,1.132V116.2h-.759Z" transform="translate(-417.547 -111.377)" fill="#fff"/>
    </g>
    <g id="Group_17864" data-name="Group 17864" transform="translate(6.881 5.743)">
      <path id="Path_8771" data-name="Path 8771" d="M376.436,111.4h-8.772c-4.133,0-5.644,1.511-5.644,5.644v8.772c0,4.133,1.511,5.644,5.644,5.644h8.772c4.133,0,5.644-1.511,5.644-5.644v-8.772c0-4.133-1.511-5.644-5.644-5.644" transform="translate(-362.02 -111.4)" fill="#fff" fill-rule="evenodd"/>
      <path id="Path_8772" data-name="Path 8772" d="M366.936,125.667h.534v2.622h-.534V127.22h-1.2v1.068H365.2v-2.622h.534v1.061h1.2Zm3,1.5c0,.429-.211.654-.6.654s-.6-.232-.6-.675v-1.483h-.534v1.5a1.039,1.039,0,0,0,1.125,1.16,1.055,1.055,0,0,0,1.139-1.181V125.66h-.534Zm6.151.3-.6-1.806h-.436l-.6,1.806-.576-1.806h-.569l.914,2.622h.443l.6-1.722.6,1.722h.443l.914-2.622h-.548Zm2.087-.309h.97v-.478h-.97v-.534h1.406v-.478h-1.933V128.3h1.982v-.478h-1.455Zm2.088,1.125h.527v-2.622h-.527Zm-8.744-.541-.239.548h-.541l1.153-2.622h.471l1.153,2.622h-.555l-.239-.548Zm.2-.478h.808l-.407-.935Z" transform="translate(-362.965 -115.637)" fill="#0277bd"/>
      <path id="Path_8773" data-name="Path 8773" d="M374.879,119.509a3.342,3.342,0,0,1-3.339-3.339h.471a2.868,2.868,0,0,0,5.736,0h.471a3.342,3.342,0,0,1-3.339,3.339" transform="translate(-364.848 -112.817)" fill="#0277bd"/>
    </g>
  </g>
</svg>
