<svg xmlns="http://www.w3.org/2000/svg" width="59.998" height="60" viewBox="0 0 59.998 60">
  <g id="online-multi-payment" transform="translate(-2 -2)">
    <path id="Path_177" data-name="Path 177" d="M52.418,23.247A1,1,0,0,0,50.76,24l-.007,2.643a14.8,14.8,0,0,0-3.051.8,20.609,20.609,0,0,0,4.711-10.831L56,16.6a1,1,0,0,0,.772-1.632l-10.28-12.6a1,1,0,0,0-1.549,0l-10.33,12.64a1,1,0,0,0,.775,1.633h0l3.244-.007a18.432,18.432,0,0,1-4.4,9.707A10.092,10.092,0,0,0,32,24.019V5.92A3.925,3.925,0,0,0,28.08,2H5.92A3.925,3.925,0,0,0,2,5.92V58.08A3.925,3.925,0,0,0,5.92,62H28.08A3.925,3.925,0,0,0,32,58.08V39.98a10.092,10.092,0,0,0,2.235-2.321,18.432,18.432,0,0,1,4.4,9.707l-3.244-.007h0a1,1,0,0,0-.775,1.633l10.33,12.64a1,1,0,0,0,1.549,0l10.28-12.6A1,1,0,0,0,56,47.4l-3.589-.008a20.758,20.758,0,0,0-3.366-9.063,12.655,12.655,0,0,1,1.69-.423l-.007,2.282a1,1,0,0,0,1.66.754l9.269-8.12a1,1,0,0,0,0-1.5ZM40.747,15.709a1,1,0,0,0-1-1.079H37.5L45.719,4.581,53.9,14.6l-2.389.006a1,1,0,0,0-1,.921,17.837,17.837,0,0,1-11.326,15.53,15.3,15.3,0,0,1-3.195.791,9.934,9.934,0,0,0-.751-3.665,20.467,20.467,0,0,0,5.508-12.474ZM30,58.08A1.922,1.922,0,0,1,28.08,60H5.92A1.922,1.922,0,0,1,4,58.08V5.92A1.922,1.922,0,0,1,5.92,4H28.08A1.922,1.922,0,0,1,30,5.92V22.841a10,10,0,1,0,0,18.318ZM26,40a8,8,0,1,1,8-8,8,8,0,0,1-8,8Zm25.508,9.39,2.392.01L45.719,59.419,37.5,49.365h2.246a1,1,0,0,0,1-1.079A20.467,20.467,0,0,0,35.24,35.808a9.924,9.924,0,0,0,.576-1.934,17.245,17.245,0,0,0,3.675-.816A17.862,17.862,0,0,1,50.513,48.469a1,1,0,0,0,.995.921Zm1.228-11.411V36.772a1,1,0,0,0-.323-.739.977.977,0,0,0-.763-.26,14.793,14.793,0,0,0-3.878.878,19.047,19.047,0,0,0-4.441-3.889,12.96,12.96,0,0,1,8.5-4.236,1,1,0,0,0,.916-.993V26.2l6.727,5.876Z" fill="#faa307"/>
    <path id="Path_178" data-name="Path 178" d="M27,27.152V26H25v1.152a2.872,2.872,0,0,0-2,2.727v.242A2.882,2.882,0,0,0,25.879,33h.242a.881.881,0,0,1,.879.879v.242a.881.881,0,0,1-.879.879h-.242A.881.881,0,0,1,25,34.121V34H23v.121a2.872,2.872,0,0,0,2,2.727V38h2V36.848a2.872,2.872,0,0,0,2-2.727v-.242A2.882,2.882,0,0,0,26.121,31h-.242A.881.881,0,0,1,25,30.121v-.242A.881.881,0,0,1,25.879,29h.242a.881.881,0,0,1,.879.879V30h2v-.121a2.872,2.872,0,0,0-2-2.727Z" fill="#faa307"/>
    <rect id="Rectangle_126" data-name="Rectangle 126" width="10" height="2" transform="translate(12 6)" fill="#faa307"/>
    <path id="Path_179" data-name="Path 179" d="M17,48a5,5,0,1,0,5,5,5,5,0,0,0-5-5Zm0,8a3,3,0,1,1,3-3,3,3,0,0,1-3,3Z" fill="#faa307"/>
  </g>
</svg>
