<svg xmlns="http://www.w3.org/2000/svg" width="51.687" height="32.695" viewBox="0 0 51.687 32.695">
  <g id="Group_14" data-name="Group 14" transform="translate(-10 1)">
    <path id="Path_17" data-name="Path 17" d="M0,0H2.423V2.423H0Z" transform="translate(42.702 12.215)" fill="none"/>
    <g id="shpping" transform="translate(10 -1)">
      <g id="Group_16" data-name="Group 16" transform="translate(0 0)">
        <g id="Group_15" data-name="Group 15">
          <path id="Path_19" data-name="Path 19" d="M48.069,107.923l-1.339-5.354a.809.809,0,0,0,.641-.791v-.863a3.4,3.4,0,0,0-3.4-3.4h-6.1V95.735A1.674,1.674,0,0,0,36.2,94.062H5.125a1.674,1.674,0,0,0-1.673,1.673V110.41a.809.809,0,0,0,1.619,0V95.735a.054.054,0,0,1,.054-.054H36.2a.054.054,0,0,1,.054.054V110.41a.809.809,0,0,0,1.619,0v-.917h9.551a2.648,2.648,0,0,1,2.515,1.834H47.424a.809.809,0,0,0-.809.809v1.726a2.539,2.539,0,0,0,2.536,2.536h.917v3.561H47.952a5.124,5.124,0,0,0-9.688,0h-.39v-6.1a.809.809,0,0,0-1.619,0v6.1H19.465a5.124,5.124,0,0,0-9.688,0H5.125a.054.054,0,0,1-.054-.054v-1.78H8.579a.809.809,0,1,0,0-1.619H.809a.809.809,0,1,0,0,1.619H3.453v1.78a1.674,1.674,0,0,0,1.673,1.673H9.5c0,.018,0,.036,0,.054a5.125,5.125,0,1,0,10.251,0c0-.018,0-.036,0-.054H37.984c0,.018,0,.036,0,.054a5.125,5.125,0,0,0,10.251,0c0-.018,0-.036,0-.054h2.645a.809.809,0,0,0,.809-.809v-8.632A4.269,4.269,0,0,0,48.069,107.923ZM37.875,99.134h6.1a1.782,1.782,0,0,1,1.78,1.78v.054H37.875Zm0,8.74v-5.287h7.191l1.322,5.287ZM14.621,125.139a3.507,3.507,0,1,1,3.507-3.507A3.511,3.511,0,0,1,14.621,125.139Zm28.487,0a3.507,3.507,0,1,1,3.507-3.507A3.511,3.511,0,0,1,43.108,125.139Zm6.96-10.359h-.917a.918.918,0,0,1-.917-.917v-.917h1.834v1.834Z" transform="translate(0 -94.062)" fill="#fff"/>
        </g>
      </g>
      <g id="Group_18" data-name="Group 18" transform="translate(12.949 25.897)">
        <g id="Group_17" data-name="Group 17">
          <path id="Path_20" data-name="Path 20" d="M129.94,350.6a1.673,1.673,0,1,0,1.673,1.673A1.674,1.674,0,0,0,129.94,350.6Z" transform="translate(-128.267 -350.597)" fill="#fff"/>
        </g>
      </g>
      <g id="Group_20" data-name="Group 20" transform="translate(41.436 25.897)">
        <g id="Group_19" data-name="Group 19">
          <path id="Path_21" data-name="Path 21" d="M412.128,350.6a1.673,1.673,0,1,0,1.673,1.673A1.674,1.674,0,0,0,412.128,350.6Z" transform="translate(-410.455 -350.597)" fill="#fff"/>
        </g>
      </g>
      <g id="Group_22" data-name="Group 22" transform="translate(20.718 22.445)">
        <g id="Group_21" data-name="Group 21">
          <path id="Path_22" data-name="Path 22" d="M218.122,316.393H206.036a.809.809,0,1,0,0,1.619h12.085a.809.809,0,1,0,0-1.619Z" transform="translate(-205.227 -316.393)" fill="#fff"/>
        </g>
      </g>
      <g id="Group_24" data-name="Group 24" transform="translate(1.726 18.991)">
        <g id="Group_23" data-name="Group 23">
          <path id="Path_23" data-name="Path 23" d="M28.27,282.188H17.911a.809.809,0,0,0,0,1.619H28.27a.809.809,0,0,0,0-1.619Z" transform="translate(-17.102 -282.188)" fill="#fff"/>
        </g>
      </g>
      <g id="Group_26" data-name="Group 26" transform="translate(14.675 7.769)">
        <g id="Group_25" data-name="Group 25">
          <path id="Path_24" data-name="Path 24" d="M158.837,171.26a.809.809,0,0,0-1.144,0l-7.2,7.2-3.744-3.744a.809.809,0,1,0-1.144,1.144l4.316,4.316a.809.809,0,0,0,1.144,0l7.769-7.769A.809.809,0,0,0,158.837,171.26Z" transform="translate(-145.37 -171.023)" fill="#fff"/>
        </g>
      </g>
    </g>
  </g>
</svg>
