<svg xmlns="http://www.w3.org/2000/svg" width="37.266" height="32.61" viewBox="0 0 37.266 32.61">
  <g id="wallet" transform="translate(0 -31.987)">
    <g id="Group_80" data-name="Group 80" transform="translate(0 31.987)">
      <path id="Path_80" data-name="Path 80" d="M36.1,48.293H34.937V42.47a1.165,1.165,0,0,0-1.165-1.165H32.608V37.812a1.165,1.165,0,0,0-1.165-1.165H27.5L25.5,32.632a1.165,1.165,0,0,0-1.563-.522l-2.683,1.344-.412-.822a1.164,1.164,0,0,0-1.563-.519l-9.07,4.535H3.494A3.5,3.5,0,0,0,0,40.141V61.1A3.5,3.5,0,0,0,3.494,64.6H33.773a1.165,1.165,0,0,0,1.165-1.165V57.609H36.1a1.165,1.165,0,0,0,1.165-1.165V49.457A1.165,1.165,0,0,0,36.1,48.293Zm-5.823-9.317v2.329h-.445l-1.165-2.329Zm-6.345-4.26,3.3,6.589H25.176l-2.883-5.769Zm-4.658,0,3.3,6.589H6.1ZM3.494,38.976H5.548L2.422,40.539a1.115,1.115,0,0,1,1.071-1.563ZM32.608,62.268H3.494A1.165,1.165,0,0,1,2.329,61.1V43.411a3.454,3.454,0,0,0,1.165.224H32.608v4.658H27.95a4.658,4.658,0,1,0,0,9.317h4.658Zm2.329-6.987H27.95a2.329,2.329,0,0,1,0-4.658h6.987Z" transform="translate(0 -31.987)" fill="#faa307"/>
    </g>
  </g>
</svg>
